<svg xmlns="http://www.w3.org/2000/svg" width="16" height="16" viewBox="0 0 16 16">
    <defs>
        <linearGradient id="prefix__a" x1="50%" x2="50%" y1="100%" y2="0%">
            <stop offset="0%" stop-color="#1ACBAA" stop-opacity="0"/>
            <stop offset="100%" stop-color="#1ACBAA" stop-opacity=".5"/>
        </linearGradient>
    </defs>
    <g fill="none" fill-rule="evenodd">
        <path fill="url(#prefix__a)" d="M8 3H13V11H8z"/>
        <path fill="#002678" d="M12 1c1.598 0 2.904 1.249 2.995 2.824L15 4v7c.513 0 .936.386.993.883L16 12v1c0 1.598-1.249 2.904-2.824 2.995L13 16H3C1.402 16 .096 14.751.005 13.176L0 13v-1c0-.513.386-.936.883-.993L1 11V4c0-1.598 1.249-2.904 2.824-2.995L4 1h8zm2 12H2c0 .513.386.936.883.993L3 14h10c.513 0 .936-.386.993-.883L14 13zM12 3H4c-.513 0-.936.386-.993.883L3 4v7h10V4c0-.513-.386-.936-.883-.993L12 3zm-1.293 2.293c.36.36.388.928.083 1.32l-.083.094-2.5 2.5c-.36.36-.928.388-1.32.083l-.094-.083-1.5-1.5c-.39-.39-.39-1.024 0-1.414.36-.36.928-.388 1.32-.083l.094.083.793.792 1.793-1.792c.39-.39 1.024-.39 1.414 0z"/>
    </g>
</svg>
