<svg xmlns="http://www.w3.org/2000/svg" width="24" height="24" viewBox="0 0 24 24">
    <defs>
        <linearGradient id="prefix__a" x1="50%" x2="50%" y1="100%" y2="0%">
            <stop offset="0%" stop-color="#1ACBAA" stop-opacity="0"/>
            <stop offset="100%" stop-color="#1ACBAA" stop-opacity=".5"/>
        </linearGradient>
    </defs>
    <g fill="none" fill-rule="evenodd">
        <path fill="url(#prefix__a)" d="M17 12.5c.078-1 1.078-1.5 3-1.5 2 .229 3 .895 3 2v8h-6v-8.5z"/>
        <path fill="#002678" d="M4 9c1.649 0 2.64.596 4.112 2.087l.38.392c.842.871 1.285 1.227 1.83 1.412.522.177.802.745.625 1.268-.177.523-.745.803-1.268.626-.88-.298-1.484-.757-2.42-1.705l-.373-.385C5.644 11.407 5.02 11 4 11c-1.054 0-1.918.816-1.995 1.85L2 13v8h4v-5c0-.513.386-.936.883-.993L7 15c.513 0 .936.386.993.883L8 16v6c0 .513-.386.936-.883.993L7 23H1c-.513 0-.936-.386-.993-.883L0 22v-9c0-2.21 1.79-4 4-4zm16 0c2.142 0 3.891 1.684 3.995 3.8L24 13v9c0 .513-.386.936-.883.993L23 23h-6c-.513 0-.936-.386-.993-.883L16 22v-6c0-.552.448-1 1-1 .513 0 .936.386.993.883L18 16v5h4v-8c0-1.054-.816-1.918-1.85-1.995L20 11c-.965 0-1.577.366-2.695 1.499l-.36.37c-1.055 1.093-1.681 1.596-2.624 1.916-.523.177-1.09-.103-1.268-.626-.177-.523.103-1.09.626-1.268.466-.158.858-.443 1.49-1.069l.506-.516C17.268 9.655 18.273 9 20 9zM4.5 1C6.433 1 8 2.567 8 4.5S6.433 8 4.5 8 1 6.433 1 4.5 2.567 1 4.5 1zm15 0C21.433 1 23 2.567 23 4.5S21.433 8 19.5 8 16 6.433 16 4.5 17.567 1 19.5 1zm-15 2C3.672 3 3 3.672 3 4.5S3.672 6 4.5 6 6 5.328 6 4.5 5.328 3 4.5 3zm15 0c-.828 0-1.5.672-1.5 1.5S18.672 6 19.5 6 21 5.328 21 4.5 20.328 3 19.5 3z"/>
    </g>
</svg>
