<svg xmlns="http://www.w3.org/2000/svg" width="16" height="16" viewBox="0 0 16 16">
    <defs>
        <linearGradient id="prefix__a" x1="0%" x2="100%" y1="50%" y2="50%">
            <stop offset="0%" stop-color="#1ACBAA" stop-opacity="0"/>
            <stop offset="100%" stop-color="#1ACBAA" stop-opacity=".5"/>
        </linearGradient>
    </defs>
    <g fill="none" fill-rule="evenodd">
        <path fill="url(#prefix__a)" d="M0 4L2.182 4.625 6 7.125 6 9 0 9z"/>
        <path fill="#002678" d="M12.369 4c.716 0 1.373.383 1.729.995l.076.145 1.632 3.426c.102.215.165.446.186.682l.008.178V11c0 1.054-.816 1.918-1.85 1.995L14 13h-1c0 1.105-.895 2-2 2-1.054 0-1.918-.816-1.995-1.85L9 13H1c-.552 0-1-.448-1-1 0-.513.386-.936.883-.993L1 11h8V5c0-.513.386-.936.883-.993L10 4h2.369zM1.904 3c.638 0 1.258.204 1.77.579l.168.13 1.711 1.449 1.894.948c.301.15.504.44.545.77L8 7v2c0 .513-.386.936-.883.993L7 10H5.914c-.206.583-.761 1-1.414 1-.653 0-1.208-.417-1.414-1h-1.95c-.552 0-1-.448-1-1 0-.513.386-.936.884-.993L1.136 8H6v-.382l-1.447-.724c-.036-.017-.07-.037-.103-.06l-.096-.07L2.55 5.236c-.145-.123-.32-.2-.506-.227L1.904 5H1c-.552 0-1-.448-1-1 0-.513.386-.936.883-.993L1 3h.904zm10.465 3H11v5h3V9.426L12.369 6z"/>
    </g>
</svg>
