<svg xmlns="http://www.w3.org/2000/svg" width="16" height="16" viewBox="0 0 16 16">
    <defs>
        <linearGradient id="prefix__a" x1="50%" x2="50%" y1="100%" y2="0%">
            <stop offset="0%" stop-color="#1ACBAA" stop-opacity="0"/>
            <stop offset="100%" stop-color="#1ACBAA" stop-opacity=".5"/>
        </linearGradient>
    </defs>
    <g fill="none" fill-rule="evenodd">
        <path fill="url(#prefix__a)" d="M8 7H14V13H8z"/>
        <path fill="#002678" d="M13 1l.117.007c.497.057.883.48.883.993s-.386.936-.883.993L13 3H3c-.552 0-1 .448-1 1 0 .513.386.936.883.993L3 5h11c1.105 0 2 .895 2 2v6c0 1.105-.895 2-2 2H3c-1.657 0-3-1.343-3-3V4c0-1.657 1.343-3 3-3h10zm1 6H2v5c0 .552.448 1 1 1h11v-2h-2c-.552 0-1-.448-1-1 0-.513.386-.936.883-.993L12 9h2V7z"/>
    </g>
</svg>
