<svg xmlns="http://www.w3.org/2000/svg" width="24" height="24" viewBox="0 0 24 24">
    <defs>
        <linearGradient id="prefix__a" x1="0%" x2="100%" y1="50%" y2="50%">
            <stop offset="0%" stop-color="#1ACBAA" stop-opacity="0"/>
            <stop offset="100%" stop-color="#1ACBAA" stop-opacity=".5"/>
        </linearGradient>
    </defs>
    <g fill="none" fill-rule="evenodd">
        <rect width="8" height="4" x="8" y="10" fill="url(#prefix__a)" rx="2"/>
        <path fill="#002678" d="M12 0c6.627 0 12 5.373 12 12s-5.373 12-12 12S0 18.627 0 12 5.373 0 12 0zm.063 16h-.126c-2.531.013-5.078.795-7.65 2.364C6.121 20.585 8.895 22 12 22c3.105 0 5.88-1.415 7.713-3.635-2.457-1.5-4.89-2.28-7.31-2.359l-.34-.006zM2.19 10.056l-.007.028C2.063 10.704 2 11.344 2 12c0 1.7.424 3.3 1.173 4.703 1.322-.815 2.65-1.446 3.984-1.893C6.44 14.09 6 13.096 6 12c0-.466.08-.913.226-1.33-1.345-.15-2.69-.355-4.036-.614zm19.62-.002l.386-.073c-1.474.294-2.947.525-4.421.692.145.414.225.861.225 1.327 0 1.096-.441 2.09-1.156 2.812 1.332.445 2.66 1.076 3.984 1.89C21.576 15.3 22 13.7 22 12c0-.666-.065-1.317-.19-1.946zM14 10h-4l-.186.008-.129.017-.144.028-.162.045-.054.019-.107.042c-.147.062-.285.142-.412.236l-.123.1-.047.042-.094.094-.111.129C8.16 11.1 8 11.532 8 12c0 1.054.816 1.918 1.85 1.995L10 14h4c1.105 0 2-.895 2-2 0-.42-.13-.81-.35-1.13h-.003c-.173-.255-.404-.466-.673-.617l-.192-.094-.107-.042-.137-.044-.08-.02-.143-.028-.149-.018L14 10zm-2-8C7.849 2 4.289 4.53 2.776 8.13l-.58-.11c1.802.36 3.604.62 5.405.783.607-.46 1.349-.747 2.155-.796L10 8h4c.9 0 1.732.298 2.4.8 1.607-.142 3.215-.365 4.824-.668C19.71 4.529 16.15 2 12 2z"/>
    </g>
</svg>
