<svg xmlns="http://www.w3.org/2000/svg" viewBox="0 0 20 20">
  <title>check</title>
  <g id="Warstwa_2" data-name="Warstwa 2">
    <g id="Warstwa_1-2" data-name="Warstwa 1">
      <path d="M12.79,2a1.25,1.25,0,0,1,1.15.74l.21.46a5.3,5.3,0,0,0,2.66,2.66l.44.19a1.29,1.29,0,0,1,.66,1.64l-.16.43a5.21,5.21,0,0,0,0,3.73l.17.49a1.24,1.24,0,0,1-.65,1.6l-.46.21a5.3,5.3,0,0,0-2.66,2.66l-.19.44A1.26,1.26,0,0,1,12.8,18a1.36,1.36,0,0,1-.48-.09l-.43-.16a5.24,5.24,0,0,0-3.74,0l-.49.17a1.17,1.17,0,0,1-.45.09,1.25,1.25,0,0,1-1.15-.74l-.21-.46a5.3,5.3,0,0,0-2.66-2.66L2.75,14a1.29,1.29,0,0,1-.66-1.64l.16-.43a5.21,5.21,0,0,0,0-3.73l-.17-.49a1.24,1.24,0,0,1,.65-1.6l.46-.21A5.31,5.31,0,0,0,5.86,3.19l.19-.44A1.26,1.26,0,0,1,7.21,2a1.32,1.32,0,0,1,.48.09l.43.16A5.06,5.06,0,0,0,10,2.6a4.89,4.89,0,0,0,1.85-.34l.49-.17A1.17,1.17,0,0,1,12.79,2Zm0-2a3.33,3.33,0,0,0-1.17.22l-.46.17A3.26,3.26,0,0,1,10,.6,3.26,3.26,0,0,1,8.84.39L8.38.22A3.27,3.27,0,0,0,4.23,1.93L4,2.38A3.32,3.32,0,0,1,2.38,4l-.45.2A3.27,3.27,0,0,0,.22,8.35l.17.46a3.2,3.2,0,0,1,0,2.32l-.17.46a3.27,3.27,0,0,0,1.71,4.15l.45.2A3.35,3.35,0,0,1,4,17.62l.2.45a3.26,3.26,0,0,0,4.15,1.71l.46-.17a3.31,3.31,0,0,1,2.32,0l.46.17a3.26,3.26,0,0,0,4.15-1.71l.2-.45A3.31,3.31,0,0,1,17.62,16l.45-.2a3.27,3.27,0,0,0,1.71-4.15l-.17-.46a3.2,3.2,0,0,1,0-2.32l.17-.46a3.27,3.27,0,0,0-1.71-4.15L17.62,4A3.32,3.32,0,0,1,16,2.38l-.2-.45A3.26,3.26,0,0,0,12.8,0Zm.68,6.35a.52.52,0,0,0-.35.14L8.38,11.23,6.88,9.74a.48.48,0,0,0-.7,0l-.53.53a.48.48,0,0,0-.15.36.47.47,0,0,0,.15.35L8,13.35a.48.48,0,0,0,.7,0l5.62-5.62a.47.47,0,0,0,.15-.35A.49.49,0,0,0,14.32,7l-.53-.53a.5.5,0,0,0-.35-.14Z"/>
    </g>
  </g>
</svg>
